<svg width="64" height="64" viewBox="0 0 64 64" fill="none" xmlns="http://www.w3.org/2000/svg">
<path d="M54.0645 37.9626C51.8023 36.5231 49.3376 35.7006 46.9066 35.0151C45.319 34.6067 43.7244 34.2801 42.125 34.0249C42.125 34.0249 36.5 33.5 31.9831 33.5C27.4662 33.5 21.875 34 21.875 34C20.2708 34.2595 18.6751 34.5944 17.0934 35.0151C14.6624 35.7006 12.1977 36.5231 9.9355 37.9626C8.78754 38.648 7.70711 39.5391 6.76173 40.6359C5.88387 41.8011 5.14108 43.2749 5.00602 44.9542C4.93849 46.6336 5.44495 48.2787 6.22151 49.6496C7.0656 50.9862 8.04474 52.1515 9.15894 53.0426C11.3873 54.8934 13.8183 56.1957 16.3506 57.1896C18.8828 58.115 21.4489 58.869 24.0824 59.3145C26.6822 59.7258 29.3496 59.9315 31.9831 60C37.284 59.8972 42.5849 59.1775 47.6494 57.1896C50.1817 56.23 52.6127 54.8934 54.8411 53.0426C55.9553 52.1515 56.9344 50.952 57.7785 49.6496C58.555 48.2787 59.0615 46.6336 58.994 44.9542C58.8589 43.2749 58.1499 41.8011 57.2383 40.6359C56.2929 39.5391 55.2125 38.648 54.0645 37.9626Z" fill="url(#paint0_linear_15904_17447)"/>
<path d="M10.764 40.4996C12.5847 38.9336 14.7906 37.6879 17.1365 36.7625C18.5086 36.2421 20.0005 35.8678 21.5 35.5613V34C19.8364 34.2694 18.1815 34.6172 16.5413 35.0542C14.0203 35.766 11.4642 36.6202 9.1183 38.115C7.92782 38.8268 6.80737 39.7522 5.82698 40.8911C4.91661 42.1012 4.1463 43.6316 4.00624 45.3756C3.93622 47.1195 4.46143 48.8279 5.26675 50.2515C6.1421 51.6396 7.15751 52.8497 8.31298 53.775C14.4414 58.8718 23.2017 60.49 31.9825 60.5C40.722 60.5099 49.4817 58.9357 55.687 53.775C56.8425 52.8497 57.8579 51.604 58.7332 50.2515C59.5386 48.8279 60.0638 47.1195 59.9938 45.3756C59.8537 43.6316 59.1184 42.1012 58.173 40.8911C57.1926 39.7522 56.0722 38.8268 54.8817 38.115C52.5358 36.6202 49.9797 35.766 47.4587 35.0542C45.8123 34.63 44.1586 34.2908 42.5 34.0258V35.604C43.9877 35.9092 45.4671 36.2818 46.8285 36.7981C49.1744 37.7235 51.3803 38.9692 53.201 40.5352C55.0218 42.0656 56.2472 44.201 56.0372 45.9806C55.757 47.7246 54.2865 49.2194 52.3957 50.3227C50.54 51.4616 48.2991 52.209 46.0582 52.8141C41.5413 53.9886 36.7444 54.4513 31.9825 54.4513C27.2206 54.4868 22.4236 54.0242 17.9068 52.8497C15.6659 52.2446 13.425 51.4972 11.5693 50.3583C9.67852 49.255 8.17292 47.7601 7.92782 45.9806C7.68272 44.1655 8.90822 42.03 10.764 40.4996Z" fill="url(#paint1_linear_15904_17447)"/>
<path fill-rule="evenodd" clip-rule="evenodd" d="M54.4965 17.9373C54.4965 19.3248 53.3716 20.4498 51.9842 20.4498H39.4978V47.9369C39.4978 49.3244 38.3729 50.4494 36.9855 50.4494C35.5981 50.4494 34.4732 49.3244 34.4732 47.9369V33.8746H29.4862V47.9369C29.4862 49.3244 28.3613 50.4494 26.9739 50.4494C25.5865 50.4494 24.4616 49.3244 24.4616 47.9369V20.4498H11.9752C10.5878 20.4498 9.46289 19.3248 9.46289 17.9373C9.46289 16.5498 10.5878 15.4248 11.9752 15.4248H51.9842C53.3716 15.4248 54.4965 16.5498 54.4965 17.9373ZM31.9985 2C28.7362 2 26.074 4.66247 26.074 7.92493C26.074 11.1874 28.7362 13.8499 31.9985 13.8499C35.2607 13.8499 37.9229 11.1874 37.9229 7.92493C37.9229 4.66247 35.2607 2 31.9985 2Z" fill="url(#paint2_linear_15904_17447)"/>
<path d="M32.0012 14C35.3339 14 38 11.3333 38 8C38 4.66667 35.3339 2 32.0012 2C28.6685 2 26.0024 4.66667 26.0024 8C25.9072 11.2381 28.6685 13.9048 32.0012 14Z" fill="url(#paint3_radial_15904_17447)"/>
<defs>
<linearGradient id="paint0_linear_15904_17447" x1="32" y1="60.0086" x2="32" y2="34" gradientUnits="userSpaceOnUse">
<stop stop-color="#4D4D4D"/>
<stop offset="1" stop-color="#333333"/>
</linearGradient>
<linearGradient id="paint1_linear_15904_17447" x1="32" y1="34" x2="32" y2="61" gradientUnits="userSpaceOnUse">
<stop stop-color="#4B4B4B"/>
<stop offset="1" stop-color="#C9C9C9"/>
</linearGradient>
<linearGradient id="paint2_linear_15904_17447" x1="32.0755" y1="1.82513" x2="32.0755" y2="47.6562" gradientUnits="userSpaceOnUse">
<stop stop-color="#E8E8E8"/>
<stop offset="1" stop-color="#808080"/>
</linearGradient>
<radialGradient id="paint3_radial_15904_17447" cx="0" cy="0" r="1" gradientUnits="userSpaceOnUse" gradientTransform="translate(33.3819 5.35238) scale(8.57924 8.58095)">
<stop stop-color="#F2F2F2"/>
<stop offset="0.64" stop-color="#B6B6B6"/>
<stop offset="1" stop-color="#999999"/>
</radialGradient>
</defs>
</svg>
