<svg width="128" height="128" viewBox="0 0 128 128" fill="none" xmlns="http://www.w3.org/2000/svg">
<mask id="path-1-outside-1_15904_17458" maskUnits="userSpaceOnUse" x="11.125" y="7.5625" width="106" height="111" fill="black">
<rect fill="white" x="11.125" y="7.5625" width="106" height="111"/>
<path fill-rule="evenodd" clip-rule="evenodd" d="M99.5966 43.4261C102.068 43.4261 104.072 41.4223 104.072 38.9508C104.072 36.4794 102.068 34.4755 99.5966 34.4755H28.3305C25.8592 34.4755 23.8555 36.4794 23.8555 38.9508C23.8555 41.4223 25.8592 43.4261 28.3305 43.4261H50.5719V67.2083C47.8183 67.3968 45.9648 67.5625 45.9648 67.5625C45.7421 67.5985 45.5194 67.6354 45.2969 67.673V67.5625C42.3336 68.0424 39.3859 68.6619 36.4642 69.4402C31.9736 70.7081 27.4207 72.2297 23.242 74.8923C21.1214 76.1602 19.1256 77.8085 17.3793 79.8372C15.7577 81.9927 14.3856 84.7188 14.1361 87.8252C14.0114 90.9316 14.9469 93.9747 16.3814 96.5105C17.9406 98.983 19.7493 101.138 21.8075 102.787C32.7238 111.865 48.3281 114.748 63.9688 114.766C79.536 114.783 95.1394 111.979 106.193 102.787C108.251 101.138 110.059 98.9196 111.619 96.5105C113.053 93.9747 113.989 90.9316 113.864 87.8252C113.614 84.7188 112.305 81.9927 110.621 79.8372C108.874 77.8085 106.879 76.1602 104.758 74.8923C100.579 72.2297 96.0264 70.7081 91.5358 69.4402C88.6031 68.6848 85.6575 68.0805 82.7031 67.6085V67.7158C82.4805 67.6787 82.2579 67.6423 82.0351 67.6068C82.0351 67.6068 80.1485 67.4308 77.3552 67.2315V43.4261H99.5966ZM53.4439 21.1163C53.4439 15.305 58.1861 10.5625 63.9969 10.5625C69.8078 10.5625 74.5499 15.305 74.5499 21.1163C74.5499 26.9275 69.8078 31.67 63.9969 31.67C58.1861 31.67 53.4439 26.9275 53.4439 21.1163Z"/>
</mask>
<path fill-rule="evenodd" clip-rule="evenodd" d="M99.5966 43.4261C102.068 43.4261 104.072 41.4223 104.072 38.9508C104.072 36.4794 102.068 34.4755 99.5966 34.4755H28.3305C25.8592 34.4755 23.8555 36.4794 23.8555 38.9508C23.8555 41.4223 25.8592 43.4261 28.3305 43.4261H50.5719V67.2083C47.8183 67.3968 45.9648 67.5625 45.9648 67.5625C45.7421 67.5985 45.5194 67.6354 45.2969 67.673V67.5625C42.3336 68.0424 39.3859 68.6619 36.4642 69.4402C31.9736 70.7081 27.4207 72.2297 23.242 74.8923C21.1214 76.1602 19.1256 77.8085 17.3793 79.8372C15.7577 81.9927 14.3856 84.7188 14.1361 87.8252C14.0114 90.9316 14.9469 93.9747 16.3814 96.5105C17.9406 98.983 19.7493 101.138 21.8075 102.787C32.7238 111.865 48.3281 114.748 63.9688 114.766C79.536 114.783 95.1394 111.979 106.193 102.787C108.251 101.138 110.059 98.9196 111.619 96.5105C113.053 93.9747 113.989 90.9316 113.864 87.8252C113.614 84.7188 112.305 81.9927 110.621 79.8372C108.874 77.8085 106.879 76.1602 104.758 74.8923C100.579 72.2297 96.0264 70.7081 91.5358 69.4402C88.6031 68.6848 85.6575 68.0805 82.7031 67.6085V67.7158C82.4805 67.6787 82.2579 67.6423 82.0351 67.6068C82.0351 67.6068 80.1485 67.4308 77.3552 67.2315V43.4261H99.5966ZM53.4439 21.1163C53.4439 15.305 58.1861 10.5625 63.9969 10.5625C69.8078 10.5625 74.5499 15.305 74.5499 21.1163C74.5499 26.9275 69.8078 31.67 63.9969 31.67C58.1861 31.67 53.4439 26.9275 53.4439 21.1163Z" fill="#222222"/>
<path d="M50.5719 43.4261H53.5719V40.4261H50.5719V43.4261ZM50.5719 67.2083L50.7768 70.2013L53.5719 70.0099V67.2083H50.5719ZM45.9648 67.5625L45.6976 64.5744L45.5913 64.5839L45.4859 64.601L45.9648 67.5625ZM45.2969 67.673H42.2969V71.2235L45.7975 70.631L45.2969 67.673ZM45.2969 67.5625H48.2969V64.0375L44.8172 64.6011L45.2969 67.5625ZM36.4642 69.4402L35.6919 66.5413L35.6704 66.547L35.649 66.5531L36.4642 69.4402ZM23.242 74.8923L24.7815 77.4671L24.8181 77.4453L24.8541 77.4224L23.242 74.8923ZM17.3793 79.8372L15.1057 77.88L15.0413 77.9548L14.982 78.0337L17.3793 79.8372ZM14.1361 87.8252L11.1458 87.585L11.1409 87.6449L11.1385 87.7048L14.1361 87.8252ZM16.3814 96.5105L13.7702 97.9876L13.8056 98.0501L13.8439 98.1108L16.3814 96.5105ZM21.8075 102.787L23.7258 100.48L23.7044 100.462L23.6828 100.445L21.8075 102.787ZM63.9688 114.766L63.9654 117.766L63.9654 117.766L63.9688 114.766ZM106.193 102.787L104.317 100.445L104.296 100.462L104.274 100.48L106.193 102.787ZM111.619 96.5105L114.137 98.1406L114.186 98.0655L114.23 97.9876L111.619 96.5105ZM113.864 87.8252L116.861 87.7048L116.859 87.6449L116.854 87.585L113.864 87.8252ZM110.621 79.8372L112.985 77.9903L112.941 77.9341L112.894 77.8801L110.621 79.8372ZM104.758 74.8923L103.146 77.4224L103.182 77.4453L103.218 77.4671L104.758 74.8923ZM91.5358 69.4402L92.351 66.5531L92.3177 66.5437L92.2842 66.5351L91.5358 69.4402ZM82.7031 67.6085L83.1764 64.6461L79.7031 64.0911V67.6085H82.7031ZM82.7031 67.7158L82.21 70.6749L85.7031 71.2571V67.7158H82.7031ZM82.0351 67.6068L82.5078 64.6443L82.4113 64.6289L82.3139 64.6198L82.0351 67.6068ZM77.3552 67.2315H74.3552V70.025L77.1417 70.2238L77.3552 67.2315ZM77.3552 43.4261V40.4261H74.3552V43.4261H77.3552ZM101.072 38.9508C101.072 39.7656 100.411 40.4261 99.5966 40.4261V46.4261C103.725 46.4261 107.072 43.0789 107.072 38.9508H101.072ZM99.5966 37.4755C100.411 37.4755 101.072 38.136 101.072 38.9508H107.072C107.072 34.8227 103.725 31.4755 99.5966 31.4755V37.4755ZM28.3305 37.4755H99.5966V31.4755H28.3305V37.4755ZM26.8555 38.9508C26.8555 38.136 27.5163 37.4755 28.3305 37.4755V31.4755C24.2022 31.4755 20.8555 34.8227 20.8555 38.9508H26.8555ZM28.3305 40.4261C27.5163 40.4261 26.8555 39.7656 26.8555 38.9508H20.8555C20.8555 43.0789 24.2022 46.4261 28.3305 46.4261V40.4261ZM50.5719 40.4261H28.3305V46.4261H50.5719V40.4261ZM53.5719 67.2083V43.4261H47.5719V67.2083H53.5719ZM50.367 64.2153C48.9764 64.3105 47.8126 64.3999 46.9951 64.4657C46.5862 64.4986 46.2638 64.5256 46.0426 64.5445C45.932 64.5539 45.8467 64.5613 45.7886 64.5664C45.7596 64.5689 45.7373 64.5709 45.7221 64.5723C45.7144 64.5729 45.7086 64.5734 45.7045 64.5738C45.7024 64.574 45.7009 64.5741 45.6997 64.5742C45.6991 64.5743 45.6987 64.5743 45.6983 64.5744C45.6982 64.5744 45.698 64.5744 45.6979 64.5744C45.6978 64.5744 45.6978 64.5744 45.6977 64.5744C45.6977 64.5744 45.6976 64.5744 45.9648 67.5625C46.232 70.5506 46.232 70.5506 46.232 70.5506C46.232 70.5506 46.232 70.5506 46.232 70.5506C46.2319 70.5506 46.232 70.5506 46.232 70.5506C46.2321 70.5506 46.2323 70.5505 46.2327 70.5505C46.2333 70.5505 46.2344 70.5504 46.236 70.5502C46.2391 70.5499 46.244 70.5495 46.2506 70.5489C46.2639 70.5478 46.2841 70.546 46.3111 70.5436C46.3651 70.5389 46.4461 70.5319 46.5523 70.5228C46.7647 70.5047 47.0777 70.4785 47.4764 70.4464C48.2741 70.3822 49.4137 70.2946 50.7768 70.2013L50.367 64.2153ZM45.4859 64.601C45.2559 64.6382 45.0261 64.6762 44.7962 64.7151L45.7975 70.631C46.0128 70.5945 46.2282 70.5589 46.4438 70.524L45.4859 64.601ZM48.2969 67.673V67.5625H42.2969V67.673H48.2969ZM44.8172 64.6011C41.7618 65.0959 38.716 65.7357 35.6919 66.5413L37.2364 72.3391C40.0557 71.5881 42.9055 70.9889 45.7765 70.5239L44.8172 64.6011ZM35.649 66.5531C31.0908 67.8401 26.1909 69.456 21.6298 72.3623L24.8541 77.4224C28.6505 75.0033 32.8565 73.5762 37.2794 72.3273L35.649 66.5531ZM21.7024 72.3175C19.3105 73.7477 17.0657 75.6031 15.1057 77.88L19.6529 81.7944C21.1856 80.014 22.9323 78.5728 24.7815 77.4671L21.7024 72.3175ZM14.982 78.0337C13.1376 80.4853 11.4544 83.7424 11.1458 87.585L17.1265 88.0654C17.3168 85.6952 18.3779 83.5001 19.7766 81.6408L14.982 78.0337ZM11.1385 87.7048C10.987 91.4781 12.1198 95.07 13.7702 97.9876L18.9926 95.0334C17.7741 92.8793 17.0357 90.3852 17.1337 87.9456L11.1385 87.7048ZM13.8439 98.1108C15.5353 100.793 17.5542 103.224 19.9322 105.128L23.6828 100.445C21.9445 99.053 20.3459 97.173 18.9189 94.9102L13.8439 98.1108ZM19.8892 105.093C31.6142 114.845 48.0849 117.748 63.9654 117.766L63.9722 111.766C48.5712 111.748 33.8333 108.886 23.7258 100.48L19.8892 105.093ZM63.9654 117.766C79.7726 117.784 96.2459 114.961 108.111 105.093L104.274 100.48C94.0328 108.998 79.2995 111.783 63.9722 111.766L63.9654 117.766ZM108.068 105.128C110.462 103.211 112.474 100.71 114.137 98.1406L109.1 94.8805C107.645 97.129 106.039 99.066 104.317 100.445L108.068 105.128ZM114.23 97.9876C115.88 95.07 117.013 91.4781 116.861 87.7048L110.866 87.9456C110.964 90.3852 110.226 92.8793 109.007 95.0334L114.23 97.9876ZM116.854 87.585C116.548 83.7741 114.949 80.5043 112.985 77.9903L108.257 81.6842C109.66 83.4811 110.681 85.6635 110.874 88.0654L116.854 87.585ZM112.894 77.8801C110.934 75.6031 108.689 73.7477 106.298 72.3175L103.218 77.4671C105.068 78.5728 106.814 80.014 108.347 81.7944L112.894 77.8801ZM106.37 72.3623C101.809 69.456 96.9092 67.8401 92.351 66.5531L90.7207 72.3273C95.1435 73.5762 99.3495 75.0033 103.146 77.4224L106.37 72.3623ZM92.2842 66.5351C89.2557 65.7549 86.218 65.132 83.1764 64.6461L82.2298 70.5709C85.097 71.029 87.9506 71.6146 90.7875 72.3454L92.2842 66.5351ZM79.7031 67.6085V67.7158H85.7031V67.6085H79.7031ZM83.1963 64.7566C82.9668 64.7183 82.7373 64.6809 82.5078 64.6443L81.5625 70.5693C81.7784 70.6038 81.9942 70.639 82.21 70.6749L83.1963 64.7566ZM82.0351 67.6068C82.3139 64.6198 82.3138 64.6198 82.3138 64.6198C82.3137 64.6198 82.3137 64.6198 82.3136 64.6198C82.3135 64.6198 82.3133 64.6197 82.3132 64.6197C82.3128 64.6197 82.3123 64.6196 82.3117 64.6196C82.3106 64.6195 82.3089 64.6193 82.3069 64.6191C82.3027 64.6187 82.2967 64.6182 82.2889 64.6175C82.2734 64.616 82.2507 64.614 82.2211 64.6113C82.1619 64.6059 82.0751 64.598 81.9626 64.588C81.7375 64.568 81.4094 64.5393 80.9937 64.5044C80.1625 64.4346 78.9798 64.3397 77.5687 64.2391L77.1417 70.2238C78.5239 70.3225 79.6812 70.4153 80.4916 70.4834C80.8968 70.5174 81.2149 70.5452 81.4309 70.5644C81.5388 70.574 81.6212 70.5814 81.6761 70.5865C81.7036 70.589 81.7241 70.5909 81.7376 70.5921C81.7443 70.5927 81.7493 70.5932 81.7524 70.5935C81.754 70.5936 81.7551 70.5937 81.7558 70.5938C81.7561 70.5938 81.7563 70.5938 81.7565 70.5938C81.7565 70.5938 81.7565 70.5938 81.7565 70.5938C81.7565 70.5938 81.7565 70.5938 81.7565 70.5938C81.7565 70.5938 81.7564 70.5938 82.0351 67.6068ZM74.3552 43.4261V67.2315H80.3552V43.4261H74.3552ZM99.5966 40.4261H77.3552V46.4261H99.5966V40.4261ZM63.9969 7.5625C56.529 7.5625 50.4439 13.6484 50.4439 21.1163H56.4439C56.4439 16.9617 59.8432 13.5625 63.9969 13.5625V7.5625ZM77.5499 21.1163C77.5499 13.6484 71.4648 7.5625 63.9969 7.5625V13.5625C68.1507 13.5625 71.5499 16.9617 71.5499 21.1163H77.5499ZM63.9969 34.67C71.4648 34.67 77.5499 28.5842 77.5499 21.1163H71.5499C71.5499 25.2709 68.1507 28.67 63.9969 28.67V34.67ZM50.4439 21.1163C50.4439 28.5842 56.529 34.67 63.9969 34.67V28.67C59.8432 28.67 56.4439 25.2709 56.4439 21.1163H50.4439Z" fill="#222222" mask="url(#path-1-outside-1_15904_17458)"/>
<path d="M103.302 74.6208C99.2729 72.0568 94.8826 70.5916 90.5524 69.3707C87.7245 68.6432 84.884 68.0614 82.0351 67.6068C82.0351 67.6068 72.0156 66.6719 63.9699 66.6719C55.9242 66.6719 45.9648 67.5625 45.9648 67.5625C43.1074 68.0246 40.2649 68.6212 37.4476 69.3707C33.1174 70.5916 28.7271 72.0568 24.6976 74.6208C22.6528 75.8418 20.7283 77.4291 19.0443 79.3826C17.4807 81.4583 16.1575 84.0834 15.917 87.0747C15.7967 90.0661 16.6988 92.9964 18.0821 95.4384C19.5856 97.8193 21.3297 99.8949 23.3144 101.482C27.2837 104.779 31.6139 107.099 36.1245 108.869C40.6351 110.517 45.2058 111.86 49.8968 112.654C54.5277 113.387 59.2789 113.753 63.9699 113.875C73.4121 113.692 82.8543 112.41 91.8755 108.869C96.3861 107.16 100.716 104.779 104.686 101.482C106.67 99.8949 108.414 97.7582 109.918 95.4384C111.301 92.9964 112.203 90.0661 112.083 87.0747C111.842 84.0834 110.579 81.4583 108.956 79.3826C107.272 77.4291 105.347 75.8418 103.302 74.6208Z" fill="url(#paint0_linear_15904_17458)"/>
<path d="M26.1733 79.1399C29.4165 76.3505 33.3457 74.1316 37.5244 72.4832C39.9684 71.5563 42.6258 70.8895 45.2969 70.3435V67.5625C42.3336 68.0424 39.3859 68.6619 36.4642 69.4402C31.9736 70.7081 27.4207 72.2297 23.242 74.8923C21.1214 76.1602 19.1256 77.8085 17.3793 79.8372C15.7577 81.9927 14.3856 84.7188 14.1361 87.8252C14.0114 90.9316 14.9469 93.9747 16.3814 96.5105C17.9406 98.983 19.7493 101.138 21.8075 102.787C32.7238 111.865 48.3281 114.748 63.9688 114.766C79.536 114.783 95.1394 111.979 106.193 102.787C108.251 101.138 110.059 98.9196 111.619 96.5105C113.053 93.9747 113.989 90.9316 113.864 87.8252C113.614 84.7188 112.305 81.9927 110.621 79.8372C108.874 77.8085 106.879 76.1602 104.758 74.8923C100.579 72.2297 96.0264 70.7081 91.5358 69.4402C88.6031 68.6848 85.6575 68.0805 82.7031 67.6085V70.4197C85.3532 70.9633 87.9882 71.6269 90.4132 72.5467C94.5919 74.195 98.5211 76.4138 101.764 79.2033C105.007 81.9293 107.19 85.7331 106.816 88.9029C106.317 92.0094 103.698 94.672 100.33 96.6373C97.0243 98.666 93.0327 99.9973 89.0411 101.075C80.9955 103.167 72.451 103.991 63.9688 103.991C55.4867 104.055 46.9421 103.231 38.8965 101.138C34.9049 100.061 30.9133 98.7294 27.6078 96.7007C24.2399 94.7354 21.558 92.0728 21.1214 88.9029C20.6849 85.6697 22.8678 81.8659 26.1733 79.1399Z" fill="url(#paint1_linear_15904_17458)"/>
<path fill-rule="evenodd" clip-rule="evenodd" d="M104.072 38.9508C104.072 41.4223 102.068 43.4261 99.5966 43.4261H77.3552V92.3876C77.3552 94.8591 75.3514 96.863 72.8802 96.863C70.4089 96.863 68.4051 94.8591 68.4051 92.3876V67.3391H59.5219V92.3876C59.5219 94.8591 57.5182 96.863 55.0469 96.863C52.5757 96.863 50.5719 94.8591 50.5719 92.3876V43.4261H28.3305C25.8592 43.4261 23.8555 41.4223 23.8555 38.9508C23.8555 36.4794 25.8592 34.4755 28.3305 34.4755H99.5966C102.068 34.4755 104.072 36.4794 104.072 38.9508ZM63.9969 10.5625C58.1861 10.5625 53.4439 15.305 53.4439 21.1163C53.4439 26.9275 58.1861 31.67 63.9969 31.67C69.8078 31.67 74.5499 26.9275 74.5499 21.1163C74.5499 15.305 69.8078 10.5625 63.9969 10.5625Z" fill="url(#paint2_linear_15904_17458)"/>
<path d="M64.0021 31.9375C69.9384 31.9375 74.6875 27.1875 74.6875 21.25C74.6875 15.3125 69.9384 10.5625 64.0021 10.5625C58.0658 10.5625 53.3168 15.3125 53.3168 21.25C53.1472 27.0179 58.0658 31.7679 64.0021 31.9375Z" fill="url(#paint3_radial_15904_17458)"/>
<defs>
<linearGradient id="paint0_linear_15904_17458" x1="64" y1="113.89" x2="64" y2="67.5625" gradientUnits="userSpaceOnUse">
<stop stop-color="#4D4D4D"/>
<stop offset="1" stop-color="#333333"/>
</linearGradient>
<linearGradient id="paint1_linear_15904_17458" x1="64" y1="67.5625" x2="64" y2="115.656" gradientUnits="userSpaceOnUse">
<stop stop-color="#868686"/>
<stop offset="1" stop-color="#C9C9C9"/>
</linearGradient>
<linearGradient id="paint2_linear_15904_17458" x1="64.1341" y1="10.251" x2="64.1341" y2="91.8876" gradientUnits="userSpaceOnUse">
<stop stop-color="#E8E8E8"/>
<stop offset="1" stop-color="#A5A5A5"/>
</linearGradient>
<radialGradient id="paint3_radial_15904_17458" cx="0" cy="0" r="1" gradientUnits="userSpaceOnUse" gradientTransform="translate(66.4615 16.5339) scale(15.2818 15.2848)">
<stop stop-color="#F2F2F2"/>
<stop offset="0.64" stop-color="#B6B6B6"/>
<stop offset="1" stop-color="#999999"/>
</radialGradient>
</defs>
</svg>
