<svg width="16" height="16" viewBox="0 0 16 16" fill="none" xmlns="http://www.w3.org/2000/svg">
<path opacity="0.5" d="M1.93256 10.2403C2.45277 9.80025 3.08302 9.45025 3.75329 9.19025C4.14532 9.04403 4.57156 8.93886 5 8.85273V8.41406C4.52469 8.48976 4.05187 8.58748 3.58322 8.71025C2.86293 8.91025 2.13264 9.15025 1.46237 9.57025C1.12223 9.77025 0.802106 10.0302 0.521993 10.3502C0.261889 10.6902 0.0418003 11.1203 0.00178418 11.6103C-0.0182239 12.1003 0.131836 12.5802 0.361929 12.9802C0.61203 13.3702 0.902146 13.7103 1.23228 13.9703C1.89254 14.5103 2.61283 14.8903 3.36314 15.1803C4.11344 15.4503 4.87374 15.6702 5.65406 15.8002C6.42437 15.9202 7.21468 15.9803 7.995 16.0003C9.56563 15.9703 11.1363 15.7603 12.6369 15.1803C13.3872 14.9003 14.1075 14.5103 14.7677 13.9703C15.0979 13.7103 15.388 13.3602 15.6381 12.9802C15.8682 12.5802 16.0182 12.1003 15.9982 11.6103C15.9582 11.1203 15.7481 10.6902 15.478 10.3502C15.1979 10.0302 14.8778 9.77025 14.5376 9.57025C13.8674 9.15025 13.1371 8.91025 12.4168 8.71025C11.9464 8.59108 11.4739 8.49578 11 8.42132V8.86475C11.4251 8.9505 11.8477 9.05517 12.2367 9.20025C12.907 9.46025 13.5372 9.81025 14.0574 10.2503C14.5776 10.6803 14.9278 11.2802 14.8678 11.7802C14.7877 12.2702 14.3676 12.6903 13.8273 13.0003C13.2971 13.3203 12.6569 13.5303 12.0166 13.7003C10.7261 14.0303 9.35555 14.1603 7.995 14.1603C6.63445 14.1703 5.2639 14.0402 3.97338 13.7102C3.33312 13.5402 2.69287 13.3302 2.16265 13.0102C1.62244 12.7002 1.19226 12.2802 1.12223 11.7802C1.05221 11.2702 1.40235 10.6703 1.93256 10.2403Z" fill="white"/>
<path fill-rule="evenodd" clip-rule="evenodd" d="M14.0002 4.25C14.0002 4.62 13.7002 4.92 13.3302 4.92H10.0002V12.25C10.0002 12.62 9.70023 12.92 9.33023 12.92C8.96023 12.92 8.66023 12.62 8.66023 12.25V8.5H7.33023V12.25C7.33023 12.62 7.03023 12.92 6.66023 12.92C6.29023 12.92 5.99023 12.62 5.99023 12.25V4.92H2.66023C2.29023 4.92 1.99023 4.62 1.99023 4.25C1.99023 3.88 2.29023 3.58 2.66023 3.58H13.3302C13.7002 3.58 14.0002 3.88 14.0002 4.25ZM8.00023 0C7.13023 0 6.42023 0.71 6.42023 1.58C6.42023 2.45 7.13023 3.16 8.00023 3.16C8.87023 3.16 9.58023 2.45 9.58023 1.58C9.58023 0.71 8.87023 0 8.00023 0Z" fill="white"/>
</svg>
